<svg xmlns="http://www.w3.org/2000/svg" viewBox="0 0 325.498 325.498" width="512" height="512"><path d="M104.998 289.047c0 8.25-6.75 15-15 15h-62c-8.25 0-15-6.75-15-15v-68c0-8.25 6.75-15 15-15h62c8.25 0 15 6.75 15 15v68zm110.25 0c0 8.25-6.75 15-15 15h-62c-8.25 0-15-6.75-15-15v-104c0-8.25 6.75-15 15-15h62c8.25 0 15 6.75 15 15v104zm110.25 0c0 8.25-6.75 15-15 15h-62c-8.25 0-15-6.75-15-15v-144c0-8.25 6.75-15 15-15h62c8.25 0 15 6.75 15 15v144zM312.522 21.731l-67.375 16.392c-5.346 1.294-6.537 5.535-2.648 9.424l14.377 14.041c1.207 1.376-.225 3.206-1.361 3.981-9.053 6.18-23.42 15.248-43.279 25.609-108.115 56.407-197.238 52.947-198.578 52.886-7.154-.363-13.271 5.148-13.641 12.314-.369 7.17 5.143 13.283 12.313 13.652.527.027 2.67.124 6.273.124 23.107 0 106.111-3.987 205.66-55.924 23.555-12.289 39.881-22.888 49.414-29.598 1.348-.949 3.697-2.585 5.865-.378l15.725 15.724c3.889 3.889 8.109 2.692 9.381-2.659l15.285-68.211c1.27-5.352-2.066-8.671-7.411-7.377z" fill="#222"/></svg>