<svg xmlns="http://www.w3.org/2000/svg" viewBox="0 0 494.34 494.34" width="512" height="512"><path d="M449.585 457.418V16.784C449.585 3.372 436.204 0 432.78 0H95.173c-50.4 0-50.438 46.64-50.438 46.64v429.816c0 9.852 8.013 17.884 17.958 17.884h322.349c9.852 0 17.863-8.032 17.863-17.884l28.738-.075c19.286.018 17.942-18.963 17.942-18.963zM317.64 148.898H132.766v-34.933H317.64v34.933zm94.092 291.273c-6.875 0-8.826.031-8.826.031V65.337c0-9.927-8.014-17.939-17.863-17.939l-305.025-.095c0-12.295 12.611-18.546 18.47-18.546h304.4c19.059 0 18.508 16.784 18.508 16.784l.02 383.78c-.001 2.503.909 10.85-9.684 10.85z" fill="#222"/></svg>