<svg xmlns="http://www.w3.org/2000/svg" width="512" height="512" viewBox="0 0 31.312 31.312"><g fill="#222"><path d="M23.695 15.25h5.052v1.878h-5.052z"/><path d="M2.931.463v2.953l1.289-.398V1.753h25.801v16.448H9.49l-.067 1.289h21.889V.463z"/><circle cx="4.983" cy="7.526" r="3.821"/><path d="M8.227 29.105v-8.314h.243l.355-6.905 6.59-3.415-.554-1.068.161.28 7.061-4.042-.319-.56-7.051 4.036-.164-.317-6.025 3.122h-2.15l-1.457 1.689-1.41-1.689-3.096.575-.198 6.868h1.313l.071 1.426h.199v8.314h-.263L0 29.438v1.412h1.305l1.524-.248.014.248h1.688v-8.548h.961v8.548H7.18l.014-.248 1.524.248h1.305v-1.412l-1.534-.333z"/></g></svg>