<svg xmlns="http://www.w3.org/2000/svg" width="512" height="512" viewBox="0 0 440 440"><g fill="#222"><path d="M268.881 290.663l-47.721-21.975-22.927-19.333-36.837 36.642h-.027l15.896 106.272c.055.365-.037.738-.255 1.037l-16.622 22.75a1.407 1.407 0 0 1-2.272 0l-16.621-22.75a1.402 1.402 0 0 1-.255-1.037l15.896-106.275h-.024l-36.836-36.639-22.926 19.333-47.722 21.975c-7.061 2.896-13.999 7.293-17.529 14.951 0 0-51.871 123.495-23.736 123.495h301.781c28.137 0-23.734-123.495-23.734-123.495-3.074-7.347-10.469-12.056-17.529-14.951zM412.094 31.436c-17.539-13.248-40.773-20.545-65.428-20.545-24.652 0-47.891 7.297-65.428 20.545-17.996 13.595-27.906 31.809-27.906 51.292 0 16.65 7.457 32.728 21.061 45.52v49.522a5.442 5.442 0 0 0 8.393 4.572l45.285-29.199a121.704 121.704 0 0 0 18.596 1.422c24.654 0 47.889-7.296 65.428-20.547C430.09 120.423 440 102.209 440 82.728c0-19.484-9.91-37.698-27.906-51.292zm-12.055 86.624c-14.088 10.644-33.043 16.505-53.373 16.505-5.232 0-10.457-.398-15.531-1.186l-7.514-1.165-6.389 4.12-22.84 14.727v-31.459l-6.299-5.923c-9.52-8.953-14.764-19.944-14.764-30.95 0-13.061 7.09-25.609 19.961-35.333 14.088-10.643 33.043-16.504 53.373-16.504s39.285 5.861 53.373 16.503c12.873 9.723 19.961 22.271 19.961 35.333.003 13.059-7.087 25.607-19.958 35.332z"/><path d="M159.253 259.182c36.399 0 85.229-45.474 86.057-121.73.527-52.916-24.673-84.584-86.057-84.584-61.387 0-86.593 31.668-86.056 84.584.829 76.256 43.455 121.73 86.056 121.73zm-17.296-100.479c44.506 4.74 83.303-57.5 82.674-1.772-.377 33.36-31.321 83.733-65.372 83.733-35.738 0-60.395-41.864-65.37-83.715-5.391-45.386 77.911-35.046 48.068 1.754z"/></g></svg>