<svg xmlns="http://www.w3.org/2000/svg" width="512" height="512" viewBox="0 0 31.098 31.098"><path d="M24.559 16.863s.216-1.418.474-2.911l.764 5.553 1.644-.151-.861-7.791c.093-.68.215-1.712.261-2.778.079-1.82.354-7.594-4.888-7.594-5.236 0-5.094 4.821-5.094 4.821l.382 6.257-.729 7.013 1.643.149.652-5.041c.396 1.339.771 2.574.771 2.574l-1.063 6.443h2.32v6.648c-.83.014-1.343.145-1.343.517 0 .395.809.521.809.521h1.877v-.491a.42.42 0 0 0-.062-.22V23.41h.593l.566 3.451-.607 3.432a.396.396 0 0 0-.146.314v.49H24.4s.809-.127.809-.521c0-.358-.479-.49-1.251-.514l.5-3.199-.478-3.452h2.065l-1.486-6.548zm-1.407-7.018v1.471h.007l.528.251-1.659 2.988-1.623-3.081.414-.104V9.795c-1.696-.533-2.936-2.099-2.936-3.97 0-.141.028-.275.042-.413 1.155-.079 5.049-.438 5.149-1.704.372.687 2.338 2.411 3.135 2.543a4.163 4.163 0 0 1-3.057 3.594zm-8.338 19.193l-1.634-.354h-.282l.769-4.067-.769-3.183v-1.612h.263l.001-1.687 1.463-.024-.18-7.741h-2.984s-.558 1.711-2.091 1.802c-1.534.089-2.115-1.802-2.115-1.802H4.586l-.227 7.935h1.398l.073 1.518h.213v8.862h-.279s-.57.104-1.634.354c-1.062.25 0 1.507 0 1.507h4.83v-9.111h1.025l.781 3.119-.781 4.133v1.86h4.828c.001-.003 1.06-1.279.001-1.509zM5.557 4.504c-.05.167-.102.334-.131.509a4.072 4.072 0 1 0 8.09.672c0-.45-.09-.875-.226-1.28l.828-1.141-1.481-.522.29-1.515-1.81.518L10.284 0 8.739 1.612 7.541.224l-.563 1.832-1.922-.629.725 1.62-1.399.392 1.175 1.065z" fill="#222"/></svg>