<svg id="Capa_1" xmlns="http://www.w3.org/2000/svg" viewBox="0 0 57.9 57.9"><style>.st0{fill:#d13834}.st1{fill:#e3e82a}.st2{fill:#3dabef}.st3{fill:#f75b57}.st4{fill:#efc514}.st5{fill:#f9d70b}.st6{fill:#ed3f32}.st7{fill:#a46f3e}.st8{fill:#6a3311}.st9{fill:#f0c419}.st10{fill:#71c285}</style><path class="st0" d="M22.9 17.3c0-.1 0-.2.1-.1h.3c.1 0 .1-.1.1-.2-.2-.2-.5-.5-.7-.5l-1.5.1c.1-.8-.4-1.8-1.4-2.5-1-.6-2-.6-2.7-.1l-.6-1.3c-.1-.2-.5-.3-.7-.4-.1 0-.2.1-.1.1l.1.2c0 .1 0 .2-.1.1h-.3c-.1 0-.1.1-.1.1l.2.3c0 .1 0 .2-.1.1h-.3c-.1 0-.1.1-.1.1l.2.3c0 .1 0 .2-.1.1h-.3c-.1 0-.1.1-.1.1l.2.3c0 .1 0 .2-.1.1h-.3c-.1 0-.1.1-.1.2.2.2.5.5.7.5l1.4-.1c-.1.8.5 1.8 1.4 2.4.9.6 2 .6 2.6.1l.7 1.5c.1.2.5.3.7.4.1 0 .2-.1.1-.2 0-.1 0-.2.1-.1h.3c.1 0 .1-.1.1-.1l-.2-.3c0-.1 0-.2.1-.1h.3c.1 0 .1-.1.1-.1l-.2-.3c0-.1 0-.2.1-.1h.3c.1 0 .1-.1.1-.1l-.2-.5z"/><path class="st1" d="M19.9 16.4c.2-.3.2-.6.1-.9l.4-.7c-.2-.2-.5-.5-.8-.6-.3-.2-.6-.3-1-.4l-.4.7c-.3.1-.5.3-.7.6-.2.3-.2.6-.1.9l-.4.8c.2.3.5.5.8.7.3.2.6.3.9.4l.4-.8c.4-.2.7-.4.8-.7z"/><ellipse transform="rotate(-14.525 18.83 15.701)" class="st2" cx="18.8" cy="15.7" rx=".7" ry=".7"/><path class="st3" d="M20.7 17.1V17c0-.1.1-.1.2-.1.3.2.4.4.4.6 0 .1 0 .1.1.2 0 .1 0 .2-.1.2s-.2 0-.2-.1-.1-.2-.1-.2c-.1-.2-.1-.3-.3-.4.1 0 0 0 0-.1z"/><path class="st3" d="M20.8 17v-.2c.1-.1.2-.1.2 0 .2.3.7.4 1.1.2.1 0 .2 0 .2.1s0 .2-.1.2c-.5.2-1 .1-1.4-.3zm-4.6-3.3c0-.1 0-.2.1-.2s.2 0 .2.1.1.2.1.2c.1.2.1.3.3.4.1 0 .1.1.1.2s-.1.1-.2.1c-.3-.2-.4-.4-.4-.6-.1 0-.2-.1-.2-.2z"/><path class="st3" d="M15.3 14.3c0-.1 0-.2.1-.2.5-.2 1.1-.1 1.4.3.1.1.1.2 0 .2-.1.1-.2.1-.2 0-.2-.3-.7-.4-1.1-.2 0 0-.1 0-.2-.1z"/><path class="st4" d="M19.1 21.9s.4-.1.4-.4c0-.1-.1-.3-.2-.3s-.3-.1-.2-.2v-.1c0-.1-.1-.3-.2-.2h-.1c-.1 0-.3-.1-.2-.2v-.1c0-.1-.1-.3-.2-.2h-.1c-.1 0-.3-.1-.2-.2v-.1c0-.1-.1-.3-.2-.2h-.1c-.1 0-.3-.1-.2-.2 0-.1-.1-.2-.3-.2-.3 0-.4.4-.5.4 0 0-.6.9-.7 2.4l.8.8c-.2-.3 1.1-.3 2.2-1zM10.7 25s-.4.1-.4.4c0 .1.1.3.2.3s.3.1.2.2v.1c0 .1.1.3.2.2h.1c.1 0 .3.1.2.2v.1c0 .1.1.3.2.2h.1c.1 0 .3.1.2.2v.1c0 .1.1.3.2.2h.1c.1 0 .3.1.2.2 0 .1.1.2.3.2.3 0 .4-.4.5-.4 0 0 .6-.9.7-2.4l-.8-.8c.2.3-1.2.3-2.2 1z"/><path class="st5" d="M17.1 23.9l-1.7 1.7c-.3.2-.7.2-.9 0l-1.7-1.7c-.2-.3-.2-.7 0-.9l1.7-1.7c.3-.2.7-.2.9 0l1.7 1.7c.2.3.2.7 0 .9z"/><path class="st6" d="M16.6 24.3l-1.2 1.2-2.2-3 1.2-1.2z"/><path class="st7" d="M16.5 22.3h-.1c-.1-.1-.1-.2 0-.2.3-.3.6-.4.8-.4h.3c.1 0 .2.1.2.1 0 .1-.1.2-.1.2h-.3c-.3 0-.4 0-.6.3h-.2z"/><path class="st7" d="M16.3 22.1c-.1 0-.1 0-.1-.1s0-.2.1-.2c.5-.3.7-.9.7-1.5 0-.1.1-.2.1-.2.1 0 .2.1.2.1 0 .9-.3 1.6-1 1.9.1 0 0 0 0 0zm-4.1 3.2c-.1 0-.1-.1-.2-.1 0-.1.1-.2.1-.2h.3c.3 0 .4 0 .6-.3.1-.1.2-.1.2 0 .1.1.1.2 0 .2-.3.3-.6.4-.8.4h-.2c.1 0 .1 0 0 0z"/><path class="st7" d="M12.7 26.7c-.1 0-.1-.1-.2-.1-.1-.7.3-1.5.8-1.8.1 0 .2 0 .2.1s0 .2-.1.2c-.5.2-.7.9-.7 1.5.2 0 .1.1 0 .1z"/><path class="st4" d="M49.2 34.5s.1-.4-.1-.6c-.1-.1-.3-.1-.4 0-.1.1-.2.1-.3.1h-.1c-.1-.1-.3 0-.3.1l-.1.1c-.1.1-.2.1-.3.1l-.1-.1c-.1-.1-.3 0-.3.1l-.1.1c-.1.1-.2.1-.3.1l-.1-.1c-.1-.1-.3 0-.3.1l-.1.1c-.1.1-.2.1-.3.1-.1-.1-.3 0-.3.1-.2.3.1.6.1.6s.4 1 1.6 2l1.2-.2c-.2-.3.6-1.4.6-2.7zm-2.1 8.7s-.1.4.1.6c.1.1.3.1.4 0 .1-.1.2-.1.3-.1l.1.1c.1.1.3 0 .3-.1l.1-.1c.1-.1.2-.1.3-.1l.1.1c.1.1.3 0 .3-.1l.1-.1c.1-.1.2-.1.3-.1l.1.1c.1.1.3 0 .3-.1l.1-.1c.1-.1.2-.1.3-.1.1.1.3 0 .3-.1.2-.3-.1-.6-.1-.6s-.4-1-1.6-2l-1.2.2c.1.2-.6 1.4-.6 2.6z"/><path class="st5" d="M49.7 37.4l.4 2.4c.1.3-.2.7-.5.7l-2.4.4c-.3.1-.7-.2-.7-.5l-.4-2.4c-.1-.3.2-.7.5-.7l2.4-.4c.3-.1.7.1.7.5z"/><path class="st6" d="M49.8 37.9l.3 1.7-3.7.1-.3-1.6z"/><path class="st7" d="M48.1 36.9s-.1.1 0 0c-.2.1-.3 0-.3-.1-.1-.4 0-.7.2-.9.1-.1.1-.2.2-.3 0-.1.1-.1.2-.1s.1.1.1.2c-.1.1-.1.2-.2.3-.1.2-.2.3-.1.6-.1.2-.1.3-.1.3z"/><path class="st7" d="M47.8 37l-.1.1c-.1 0-.2-.1-.1-.2.1-.5-.3-1.1-.8-1.4-.1 0-.1-.1-.1-.2s.1-.1.2-.1c.6.3 1 1 .9 1.8.1-.1.1-.1 0 0zm.3 5.1c0 .1-.1.1-.2 0-.1 0-.1-.1-.1-.2.1-.1.1-.2.2-.3.1-.2.2-.3.1-.6 0-.1 0-.2.1-.2s.2 0 .2.1c.1.4 0 .7-.2.9.1.1 0 .2-.1.3z"/><path class="st7" d="M49.6 42.5c0 .1-.1.1-.2 0-.6-.3-1-1-1-1.7 0-.1.1-.2.2-.1.1 0 .2.1.1.2-.1.5.3 1.1.8 1.4.1 0 .1.1.1.2z"/><path class="st8" d="M28.8 10.6l.3-.6v-.2l-.2-.2c-.1-.1-.2-.1-.3 0l-.2.2c-.1.1-.2.1-.3 0l-.1-.4c-.1-.1-.2-.1-.3 0l-.2.2c-.1.1-.2.1-.3 0l-.2-.3c-.1-.1-.2-.1-.3 0l-.2.2c-.1.1-.2.1-.3 0l-.2-.2c-.1-.1-.2-.1-.3 0l-.2.2c-.1.1-.1.1-.1.2l.2.7c0 2.2-.2 4.4-.6 6.6l-.3.6v.2l.3.2c.1.1.2.1.3 0l.2-.2c.1-.1.2-.1.3 0l.2.2c.1.1.2.1.3 0l.2-.2c.1-.1.2-.1.3 0l.2.2c.1.1.2.1.3 0l.2-.2c.1-.1.2-.1.3 0l.2.2c.1.1.2.1.3 0l.3-.2c.1-.1.1-.1.1-.2l-.2-.7c-.3-2-.1-4.2.3-6.3z"/><path class="st7" d="M26.4 10.6h-.1c-.1 0-.1-.1-.1-.2v-.3c0-.1.1-.1.2-.1s.1.1.1.2v.3l-.1.1zm.6.1h-.1c-.1 0-.1-.1-.1-.2v-.3c0-.1.1-.1.2-.1s.1.1.1.2v.3s0 .1-.1.1zm.6.1h-.1c-.1 0-.1-.1-.1-.2v-.3c0-.1.1-.1.2-.1s.1.1.1.2v.3l-.1.1zm.7 0h-.1c-.1 0-.1-.1-.1-.2v-.3c0-.1.1-.1.2-.1s.1.1.1.2v.3c-.1 0-.1.1-.1.1zm-2.5 6.4h-.1c-.1 0-.1-.1-.1-.2v-.3c0-.1.1-.1.2-.1s.1.1.1.2v.3s0 .1-.1.1zm.6.1h-.1c-.1 0-.1-.1-.1-.2v-.3c0-.1.1-.1.2-.1s.1.1.1.2v.3l-.1.1zm.7 0H27c-.1 0-.1-.1-.1-.2v-.3c0-.1.1-.1.2-.1s.1.1.1.2v.3c-.1 0-.1.1-.1.1zm.6.1h-.1c-.1 0-.1-.1-.1-.2v-.3c0-.1.1-.1.2-.1s.1.1.1.2v.3c-.1 0-.1 0-.1.1z"/><path class="st5" d="M28.3 15l.3-3.3-3 .8-.3 3.3 3-.8z"/><ellipse transform="rotate(-39.995 27.042 13.658)" class="st6" cx="27" cy="13.7" rx=".9" ry=".9"/><path class="st8" d="M54.1 37.2l.5.5c.1.1.1.1.2.1l.3-.1c.1 0 .2-.2.1-.3l-.1-.2c0-.1 0-.2.1-.3l.2-.1c.1 0 .2-.2.1-.3l-.1-.2c0-.1 0-.2.1-.3l.2-.1c.1 0 .2-.2.1-.3l.2-.1c0-.1 0-.2.1-.3l.2-.1c.1 0 .2-.2.1-.3l-.1-.3c0-.1-.1-.1-.2-.1h-.7c-2.1-.8-4-1.7-5.9-2.9L49 31c-.1-.1-.1-.1-.2-.1l-.3.1c-.1 0-.2.1-.1.3l.1.3c0 .1 0 .2-.1.3l-.3.1c-.1 0-.2.1-.1.3l.1.3c0 .1 0 .2-.1.3l-.3.1c-.1 0-.2.1-.1.3l.1.3c0 .1 0 .2-.1.3l-.3.1c-.1 0-.2.1-.1.3l.1.3c0 .1.1.1.2.1h.7c2 .4 4 1.3 5.9 2.5z"/><path class="st7" d="M54.9 34.9v-.1c0-.1.1-.1.2-.1l.3.1c.1 0 .1.1.1.2s-.1.1-.2.1l-.4-.2c0 .1 0 0 0 0zm-.3.6v-.1c0-.1.1-.1.2-.1l.3.1c.1 0 .1.1.1.2s-.1.1-.2.1l-.4-.2c.1 0 0 0 0 0zm-.3.5v-.1c0-.1.1-.1.2-.1l.3.1c.1 0 .1.1.1.2s-.1.1-.2.1l-.4-.2c.1.1.1.1 0 0zm-.2.6v-.1c0-.1.1-.1.2-.1l.3.1c.1 0 .1.1.1.2s-.1.1-.2.1l-.4-.2c0 .1 0 0 0 0zM49 32.1V32c0-.1.1-.1.2-.1l.3.1c.1 0 .1.1.1.2s-.1.1-.2.1l-.4-.2zm-.3.5v-.1c0-.1.1-.1.2-.1l.3.1c.1 0 .1.1.1.2s-.1.1-.2.1l-.4-.2c0 .1 0 .1 0 0zm-.3.6v-.1c0-.1.1-.1.2-.1l.3.1c.1 0 .1.1.1.2s-.1.1-.2.1l-.4-.2c.1.1 0 0 0 0zm-.3.5v-.1c0-.1.1-.1.2-.1l.3.1c.1 0 .1.1.1.2s-.1.1-.2.1l-.4-.2c.1.1.1.1 0 0z"/><path class="st5" d="M50.2 35.1c1 .4 2 .9 3 1.5l.3-3.1c-1-.4-2-.9-3-1.5l-.3 3.1z"/><ellipse transform="rotate(-19.265 51.85 34.454)" class="st6" cx="51.8" cy="34.4" rx=".9" ry=".9"/><path class="st8" d="M21.4 36.1l.7.3h.2l.2-.2c.1-.1.1-.2 0-.3l-.2-.2c-.1-.1-.1-.2 0-.3l.2-.2c.1-.1.1-.2 0-.3l-.2-.2c-.1-.1-.1-.2 0-.3l.2-.2c.1-.1.1-.2 0-.3l-.2-.2c-.1-.1-.1-.2 0-.3l.2-.2c.1-.1.1-.2 0-.3l-.2-.2c-.1-.1-.1-.1-.2-.1l-.6.4c-2.2.2-4.4.1-6.6-.1l-.7-.3H14l-.2.2c-.1.1-.1.2 0 .3l.2.2c.1.1.1.2 0 .3l-.2.2c-.1.1-.1.2 0 .3l.2.2c.1.1.1.2 0 .3l-.2.2c-.1.1-.1.2 0 .3l.2.2c.1.1.1.2 0 .3l-.2.2c-.1.1-.1.2 0 .3l.2.2c.1.1.1.1.2 0l.7-.3c2.1-.2 4.3-.2 6.5.1z"/><path class="st7" d="M21.2 33.7v-.1c0-.1.1-.2.2-.2h.3c.1 0 .2.1.2.2s-.1.2-.2.2h-.3c-.1-.1-.2-.1-.2-.1zm0 .6v-.1c0-.1.1-.2.2-.2h.3c.1 0 .2.1.2.2s-.1.2-.2.2h-.3c-.1 0-.2 0-.2-.1zm0 .7v-.1c0-.1.1-.2.2-.2h.3c.1 0 .2.1.2.2s-.2.1-.3.1h-.4zm0 .6v-.1c0-.1.1-.2.2-.2h.3c.1 0 .2.1.2.2s-.1.2-.2.2h-.3l-.2-.1zm-6.6-2v-.1c0-.1.1-.2.2-.2h.3c.1 0 .2.1.2.2s-.1.2-.2.2h-.3c-.1-.1-.2-.1-.2-.1zm0 .6v-.1c0-.1.1-.2.2-.2h.3c.1 0 .2.1.2.2s-.1.2-.2.2h-.3c-.1-.1-.2-.1-.2-.1zm0 .6v-.1c0-.1.1-.2.2-.2h.3c.1 0 .2.1.2.2s-.1.2-.2.2h-.3c-.1 0-.2-.1-.2-.1zm0 .6v-.1c0-.1.1-.2.2-.2h.3c.1 0 .2.1.2.2s-.1.2-.2.2h-.3c-.2 0-.2 0-.2-.1z"/><path class="st5" d="M17 35.9c1.1 0 2.2 0 3.3.1l-1-2.9c-1.1 0-2.2 0-3.3-.1l1 2.9z"/><ellipse transform="rotate(-43.739 18.237 34.544)" class="st6" cx="18.2" cy="34.5" rx=".9" ry=".9"/><path class="st8" d="M6.5 23.3l-.4.6v.2l.2.3c.1.1.2.1.3.1l.2-.1c.1-.1.2 0 .3.1l.1.2c.1.1.2.1.3.1l.2-.1c.1-.1.2 0 .3.1l.1.2c.1.1.2.1.3.1l.2-.1c.1-.1.2 0 .3.1l.2-.1c.1.1.2.1.3.1l.3-.2c.1 0 .1-.1.1-.2l-.1-.7c.2-2.2.6-4.4 1.2-6.5l.4-.6v-.2l-.3-.3c-.1-.1-.2-.1-.3-.1l-.2.2c-.1.1-.2 0-.3-.1l-.2-.2c-.1-.1-.2-.1-.3-.1l-.2.2c-.1.1-.2 0-.3-.1V16c-.1-.1-.2-.1-.3 0l-.2.2c-.1.1-.2 0-.3-.1l-.2-.2c-.1-.1-.2-.1-.3-.1l-.2.2c-.1 0-.1.1-.1.2l.1.7c-.2 2.2-.6 4.3-1.2 6.4z"/><path class="st7" d="M8.9 23.5H9c.1 0 .1.1.1.2v.3c0 .1-.1.1-.2.1s-.1-.1-.1-.2l.1-.3v-.1zm-.6-.1h.1c.1 0 .1.1.1.2l-.1.3c.1.1 0 .1-.1.1s-.1-.1-.1-.2l.1-.3c-.1 0 0-.1 0-.1zm-.6-.1h.1c.1 0 .1.1.1.2l-.1.3c0 .1-.1.1-.2.1s-.1-.1-.1-.2l.1-.3.1-.1zm-.6-.1h.1c.1 0 .1.1.1.2l-.1.3c0 .1-.1.1-.2.1s-.1-.1-.1-.2l.1-.3c0-.1 0-.1.1-.1zm3-6.1h.1c.1 0 .1.1.1.2l-.1.3c0 .1-.1.1-.2.1s-.1-.1-.1-.2l.1-.3.1-.1zm-.6-.2h.1c.1 0 .1.1.1.2l-.1.3c0 .1-.1.1-.2.1s-.1-.1-.1-.2l.2-.3v-.1zm-.6-.1H9c.1 0 .1.1.1.2l-.1.3c0 .1-.1.1-.2.1s-.1-.1-.1-.2l.1-.3c.1 0 .1 0 .1-.1zm-.6-.1h.1c.1 0 .1.1.1.2l-.1.3c0 .1-.1.1-.2.1s-.1-.1-.1-.2l.1-.3.1-.1z"/><path class="st5" d="M7.5 19c-.2 1.1-.4 2.2-.7 3.2l3.1-.5c.2-1.1.4-2.2.7-3.2l-3.1.5z"/><ellipse transform="rotate(-34.239 8.572 20.468)" class="st6" cx="8.6" cy="20.5" rx=".9" ry=".9"/><path class="st9" d="M34.5 31.3L49 24c3.4 8 .3 17.3-7.2 21.8l-7.3-14.5z"/><path class="st10" d="M39.5 14.6c3.4 1.4 6.4 3.9 8.3 7.2l-13.6 6.8-3 1.5 8.4 16.6c-8.8 3.7-19.2-.4-22.9-9.5-3.2-7.9-.1-17 7.1-21.4 3.9-2.4 8.3-3 12.3-2.2.4.1.7.2 1.1.3l1.2.4c.4 0 .8.2 1.1.3z"/><path class="st4" d="M11.1 13.4s.4.2.6-.1c.1-.1.1-.3 0-.4-.1-.1-.1-.3 0-.3l.1-.1c.1-.1.1-.3 0-.3l-.1-.1c-.1-.1-.1-.3 0-.3l.1-.1c.1-.1.1-.3 0-.3l-.1-.1c-.1-.1-.1-.3 0-.3l.1-.1c.1-.1.1-.3 0-.3l-.1-.1c-.1-.1-.1-.3 0-.3.1-.1 0-.3-.1-.4-.2-.2-.6 0-.6 0s-1 .3-2.1 1.4l.1 1.2c-.2 0 .8.9 2.1 1zm-8.4-3.1s-.4-.2-.6.1c-.1.1-.1.3 0 .4.1.1.1.3 0 .3l-.1.1c-.1.1-.1.3 0 .3l.1.1c.1.1.1.3 0 .3v.1c-.1.1-.1.3 0 .3l.1.1c.1.1.1.3 0 .3l-.1.1c-.1.1-.1.3 0 .3l.1.1c.1.1.1.3 0 .3-.1.1 0 .3.1.4.2.2.6 0 .6 0s1-.3 2.1-1.4v-1.2s-1-.9-2.3-1z"/><path class="st5" d="M8.2 13.6l-2.4.1c-.4 0-.7-.2-.7-.6L5 10.7c0-.4.2-.7.6-.7L8 9.9c.4 0 .7.2.7.6l.1 2.5c.1.3-.2.6-.6.6z"/><path class="st6" d="M7.6 13.7l-1.6.1.3-3.8L8 9.9z"/><path class="st7" d="M8.9 12s-.1 0 0 0c-.1-.2 0-.3.1-.3.5-.1.6.1.9.3l.2.2c.1 0 .1.1 0 .2 0 .1-.1.1-.2 0s-.2-.1-.3-.2c-.2-.1-.3-.2-.6-.1 0 0-.1 0-.1-.1z"/><path class="st7" d="M8.9 11.8s-.1-.1-.1-.2.1-.1.2-.1c.5.1 1.1-.2 1.5-.6 0-.1.1-.1.2 0 .1 0 .1.1 0 .2-.4.5-1.1.9-1.8.7zm-5.2-.3c-.1-.1-.1-.1 0-.2 0-.1.1-.1.2 0s.2.1.3.2c.2.2.3.3.6.2.1 0 .2 0 .2.1s0 .2-.1.2c-.5.1-.6-.1-.9-.3-.1-.1-.2-.1-.3-.2z"/><path class="st7" d="M3.1 12.9c-.1-.1-.1-.1 0-.2.4-.6 1.2-.9 1.8-.8.1 0 .1.1.1.2s-.1.1-.2.1c-.5-.1-1.1.2-1.5.6 0 .1-.1.2-.2.1z"/><path class="st0" d="M11.9 29.5c-.1 0-.1-.1-.1-.1l.1-.2c0-.1 0-.2-.1-.1-.2.1-.6.2-.7.3l-.7 1.3c-.6-.5-1.6-.6-2.6-.1S6.3 32 6.3 32.8L5 32.4c-.2 0-.5.2-.7.4-.1.1 0 .2.1.2h.2c.1 0 .1.1.1.1l-.2.3c0 .1 0 .1.1.1h.3c.1 0 .1.1.1.2l-.2.3c0 .1 0 .1.1.1h.3c.1 0 .1.1.1.1l-.2.3c0 .1 0 .1.1.1h.3c.1 0 .1.1.1.1l-.2.3c0 .1 0 .2.1.1.2-.1.6-.2.7-.3l.6-1.2c.6.5 1.6.5 2.6.1.9-.5 1.5-1.3 1.5-2.1l1.5.2c.2 0 .5-.2.7-.4.1-.1 0-.2-.1-.2h-.2c-.1 0-.1-.1-.1-.1l.2-.3c0-.1 0-.1-.1-.1h-.3c-.1 0-.1-.1-.1-.1l.2-.3c0-.1 0-.1-.1-.1h-.3c-.1 0-.1-.1-.1-.1l.2-.3c0-.1 0-.1-.1-.1l-.3-.2z"/><path class="st1" d="M9.7 31.5c-.2-.3-.4-.5-.7-.6l-.4-.7c-.3 0-.6.1-.9.3-.3.2-.6.4-.8.6l.4.7c-.1.3 0 .6.1.9.1.3.4.5.6.6l.4.7c.3 0 .6-.1 1-.3.3-.1.5-.3.8-.5l-.4-.8c0-.3 0-.6-.1-.9z"/><ellipse transform="rotate(-71.826 8.558 32.077)" class="st2" cx="8.6" cy="32.1" rx=".7" ry=".7"/><path class="st3" d="M10.6 31.2c-.1-.1-.1-.2 0-.3.3-.2.5-.1.7-.1.1 0 .1 0 .2.1.1 0 .1.1.1.2s-.1.1-.2.1-.2 0-.2-.1c-.2-.1-.3-.1-.4 0-.1.1-.1.1-.2.1z"/><path class="st3" d="M10.5 31.1l-.1-.1c0-.1 0-.2.1-.2.3-.1.6-.4.7-.8 0-.1.1-.1.2-.1s.1.1.1.2c0 .5-.4.9-1 1 .1 0 .1 0 0 0zm-4.8 2.1c-.1 0-.1-.1-.1-.2s.1-.1.2-.1c0 .1.1.1.2.1.2.1.3.1.4 0h.2v.2c-.3.2-.5.1-.7.1-.1 0-.1-.1-.2-.1z"/><path class="st3" d="M5.7 34.3c-.1 0-.1-.1-.1-.2.1-.5.5-.9.9-1 .1 0 .2 0 .2.1s0 .2-.1.2c-.3.1-.6.4-.7.8-.1 0-.1.1-.2.1z"/></svg>