<svg id="Capa_1" xmlns="http://www.w3.org/2000/svg" viewBox="0 0 464 464"><style>.st0{fill:#82c8dc}.st1{fill:#b4e6f0}.st2{fill:#d9ffff}.st3{fill:#a0dce6}.st4{fill:#ebffff}.st5{fill:#dae7ef}.st6{fill:#bbd7ea}.st7{fill:#fff}.st8{fill:#8ab6ce}</style><path class="st0" d="M4.2 162.5l142 166.5-63.1-166.5z"/><path class="st1" d="M209.4 162.5L146.2 329l142.1-166.5z"/><path class="st2" d="M146.2 162.5h63.2L146.2 89l-63.1 73.5z"/><path class="st3" d="M146.2 162.5H83.1L146.2 329l63.2-166.5zM67.8 89L4.2 162.5h78.9z"/><path class="st4" d="M288.3 162.5L224.6 89l-15.2 73.5z"/><path class="st1" d="M224.6 89h-78.4l63.2 73.5zm-78.4 0H67.8l15.3 73.5z"/><path class="st0" d="M196 319l27.6 57.1-5.5-51.3z"/><path class="st1" d="M253.5 334l-29.9 42.1 52-36.3z"/><path class="st2" d="M235.8 329.4l17.7 4.6-12.3-25.2-23.1 16z"/><path class="st3" d="M235.8 329.4l-17.7-4.6 5.5 51.3 29.9-42.1zm-16.6-26.3L196 319l22.1 5.8z"/><path class="st4" d="M275.6 339.8l-12.4-25.2-9.7 19.4z"/><path class="st1" d="M263.2 314.6l-22-5.8 12.3 25.2zm-22-5.8l-22-5.7-1.1 21.7z"/><path class="st5" d="M419.4 376.5h-57.8c-39.3 0-37.4-195.1-37.4-195.1 0-10.3 132.6-10.3 132.6 0 0 0 2.1 195.1-37.4 195.1z"/><path class="st6" d="M419.4 378.6h-57.8c-4 0-7.8-1.8-11.3-5.2-29.5-29.7-28.3-185.4-28.2-192 0-8.5 42.8-9.8 68.4-9.8 25.5 0 68.4 1.3 68.4 9.8.1 6.6 1.4 162.1-28.1 192-3.5 3.4-7.4 5.2-11.4 5.2zm-29-202.9c-41.3 0-62.5 3.5-64.3 6.1.1 1.2-1.1 160.2 27.1 188.7 2.7 2.7 5.4 4 8.3 4h57.8c3 0 5.7-1.3 8.4-4 28.3-28.6 26.9-187.4 26.9-189-1.7-2.2-22.9-5.8-64.2-5.8z"/><path class="st6" d="M454.2 249.3l-.4.4c-11.3 11.2-18.9 11.1-30.1-.1-11.5 11.5-21 11.6-32.3.3-11.5 11.5-21 11.6-32.3.3-11.5 11.5-21 10.4-32.3-.9l-.8.5c3.2 56.3 11.9 126.8 35.6 126.8h57.8c23.7 0 32.4-70.2 35.6-126.4l-.8-.9z"/><circle class="st7" cx="403.9" cy="282.4" r="4.1"/><circle class="st7" cx="412.2" cy="303.1" r="4.1"/><circle class="st7" cx="424.6" cy="323.8" r="4.1"/><circle class="st7" cx="391.5" cy="311.4" r="4.1"/><circle class="st7" cx="420.5" cy="278.3" r="4.1"/><path class="st8" d="M376.5 301.1l-9.1 8.5c-3.3 3.1-8.6 2.9-11.7-.4l-8.5-9.1c-3.1-3.3-2.9-8.6.4-11.7l9.1-8.5c3.3-3.1 8.6-2.9 11.7.4l8.5 9.1c3.1 3.3 2.9 8.6-.4 11.7zm37.2 54.8l-9.1 8.5c-3.3 3.1-8.6 2.9-11.7-.4l-8.5-9.1c-3.1-3.3-2.9-8.6.4-11.7l9.1-8.5c3.3-3.1 8.6-2.9 11.7.4l8.5 9.1c3.1 3.3 3 8.6-.4 11.7z"/><circle class="st7" cx="358.4" cy="336.6" r="4.1"/><circle class="st7" cx="366.7" cy="361.5" r="4.1"/></svg>