<svg id="Capa_1" xmlns="http://www.w3.org/2000/svg" viewBox="0 0 59 59"><style>.st0{fill:#f4adc9}.st1{fill:#fff}.st2{fill:#e685a5}.st3{fill:#ffd949}.st4{fill:#f4bf1a}</style><g id="XMLID_13_"><path id="XMLID_118_" class="st0" d="M47.3 33.2h-.2c-1.5 0-2.7-1.2-2.7-2.7 0-1.1.7-2.1 1.7-2.5-1.5-3.9-4.2-6.8-7.7-8.6-.5 1.2-1.2 2.3-2.2 3.1-3.6-1.9-7.9-1.7-11.3.5a9.07 9.07 0 0 1-3-4.2s0-.1-.1-.1c-1.1.3-2.1.7-2.7.9-3.2-1.3-5.4-1.9-7.4-1.6-.3 0-.3.4-.1.5 1.8.9 2.1 3.1 2.9 4.8-2.3 2.2-2.6 3.9-3 6.8H10c-2.2 0-3.1 1.8-3.1 4v2.8c0 2.2.9 4 3.1 4h1c2.3 6.6 10.3 10.2 18.7 10.2 10.2 0 17.8-5.9 17.8-14.8 0-1.1-.1-2.1-.2-3.1"/><path id="XMLID_117_" class="st1" d="M19.2 29.1c0 1.1-.9 1.9-1.9 1.9s-1.9-.9-1.9-1.9c0-1.1.9-1.9 1.9-1.9 1-.1 1.9.8 1.9 1.9"/><path id="XMLID_116_" class="st2" d="M47.5 36.3c-.4 0-.8-.3-.8-.8 0-.4.3-.8.8-.8 1.7 0 3.1-1.4 3.1-3.1 0-.4.3-.8.8-.8.4 0 .8.3.8.8-.1 2.7-2.2 4.7-4.7 4.7"/><path id="XMLID_115_" class="st2" d="M51.3 32.5c-.4 0-.8-.3-.8-.8 0-1.7-1.4-3.1-3.1-3.1-.4 0-.8-.3-.8-.8 0-.4.3-.8.8-.8 2.5 0 4.6 2.1 4.6 4.6.1.6-.3.9-.7.9"/><path id="XMLID_112_" class="st2" d="M47.1 34c-1.9 0-3.4-1.5-3.4-3.4s1.5-3.4 3.4-3.4 3.4 1.5 3.4 3.4S49 34 47.1 34m0-5.3c-1.1 0-1.9.9-1.9 1.9 0 1.1.9 1.9 1.9 1.9 1.1 0 1.9-.9 1.9-1.9 0-1.1-.8-1.9-1.9-1.9"/><path id="XMLID_111_" class="st2" d="M49.7 30.9c-.1 0-.2 0-.3-.1-.4-.2-.6-.6-.4-1 .5-1 .5-2.2 0-3.2-.2-.4 0-.8.4-1 .4-.2.8 0 1 .4.6 1.4.6 3 0 4.4-.1.4-.4.5-.7.5"/><path id="XMLID_110_" class="st2" d="M44.2 45.3c-1.8 2.1-4.4 3.8-7.4 4.7l.2.8c.2.5.7.9 1.2.9h4.6c1.8 0 3-1.8 2.4-3.4l-1-3z"/><path id="XMLID_109_" class="st2" d="M13.8 45.4l-1.2 3.1c-.6 1.5.5 3.2 2.2 3.2H20c.3 0 .6-.2.8-.5l.6-1.4c-3.1-1-5.7-2.4-7.6-4.4"/><path id="XMLID_108_" class="st2" d="M28.7 48.7c-2.9 0-5.4-.6-8-1.7-.4-.2-.6-.6-.4-1 .2-.4.6-.6 1-.4 3 1.3 5.9 1.8 9.3 1.5.4 0 .8.3.8.7 0 .4-.3.8-.7.8-.7.1-1.4.1-2 .1"/><path id="XMLID_107_" class="st2" d="M39 25.4c-.2 0-.4-.1-.5-.2-4.1-4.1-10.8-4.1-14.9 0-.3.3-.8.3-1.1 0-.3-.3-.3-.8 0-1.1 4.7-4.7 12.3-4.7 17 0 .3.3.3.8 0 1.1-.1.1-.3.2-.5.2"/><path id="XMLID_106_" class="st3" d="M24.3 22.6c3.7-2.5 8.6-2.7 12.5-.5 1.4-1.6 2.3-3.6 2.3-5.9 0-4.9-3.9-8.8-8.8-8.8s-8.8 3.9-8.8 8.8c0 2.5 1.1 4.7 2.8 6.4"/><path id="XMLID_105_" class="st4" d="M27.4 21.1c2-.6 4.1-.7 6.2-.2 1.5-1 2.5-2.8 2.5-4.7 0-3.2-2.6-5.7-5.7-5.7-3.2 0-5.7 2.6-5.7 5.7-.1 2 1 3.9 2.7 4.9"/></g></svg>