<svg xmlns="http://www.w3.org/2000/svg" width="512" height="512" viewBox="0 0 31.178 31.178"><g fill="#FFF"><circle cx="5.042" cy="5.721" r="3.866"/><path d="M30.779 6.78h-9.346V5.722h-2.479V6.78H9.446v1.275h.631v2.806l-1.452-.692H6.449l-1.474 1.709-1.426-1.709-3.133.582-.2 6.949h1.328l.072 1.443h.202v8.412h-.267L0 27.893v1.43h1.321l1.542-.251.014.251h1.708v-8.649h.973v8.649h1.708l.014-.251 1.542.251h1.321v-1.43l-1.553-.336h-.265v-8.412h.245l.316-6.4 1.191.539v7.355h9.136v2.343l-5.042 5.688h1.812l3.404-3.844v3.844h1.041v-3.84l3.399 3.84h1.841l-5.07-5.688v-2.343H30.78V8.056h.398V6.78h-.399zm-.892 12.92H10.97v-6.013l3.717 1.682-.014-2.317-3.703-1.765V8.056h18.917V19.7z"/><path d="M20.34 18.771c1.198 0 2.29-.46 3.111-1.213l-1.911-1.984a1.846 1.846 0 0 1-1.2.442 1.859 1.859 0 0 1-1.857-1.856c0-.972.75-1.769 1.701-1.849V9.554a4.615 4.615 0 0 0-4.456 4.606 4.616 4.616 0 0 0 4.612 4.611z"/><path d="M22.139 15.717l1.91 1.986a4.604 4.604 0 0 0 1.495-3.236l-2.759.011a1.86 1.86 0 0 1-.646 1.239zm.336-1.729c0 .06-.004.116-.008.175l2.758-.01c.002-.056.004-.109.004-.165a4.615 4.615 0 0 0-4.61-4.61c-.052 0-.103.002-.155.005v2.758a1.61 1.61 0 0 1 .155-.009 1.857 1.857 0 0 1 1.856 1.856zm4.252.587h2.313v.563h-2.313zm0 .948h2.313v.562h-2.313zm0 .979h2.313v.563h-2.313zm0 1h2.313v.563h-2.313zm0 .988h2.313v.563h-2.313z"/></g></svg>