<svg id="Capa_1" xmlns="http://www.w3.org/2000/svg" viewBox="0 0 59 59"><style>.st0{fill:#e5e5e6}.st1{fill:#e0a370}.st2{fill:#cc4b4c}.st3{fill:#e39700}.st4{fill:#ffcb43}.st5{fill:#959595}.st6{fill:#f2ecbf}.st7{fill:#949493}</style><path class="st0" d="M20.7 24.7c.2.5.4.9.5 1.4l-.7.8c-.2.3-.2.7.1.9l1.2 1.2c.3.3.6.3.9.1l.8-.6c.5.3.9.5 1.4.5l.1 1c0 .4.4.6.7.6h1.6c.4 0 .6-.3.7-.6l.1-1.1c.5-.2 1-.4 1.4-.6l.8.6c.3.2.7.2.9-.1l1.2-1.2c.3-.3.3-.6.1-.9l-.6-.8c.3-.5.5-1 .6-1.4l1-.1c.4 0 .6-.4.6-.7v-1.6c0-.4-.3-.6-.6-.7l-1-.1c-.1-.5-.4-1-.5-1.4l.6-.7c.2-.3.2-.7-.1-.9L31.4 17c-.3-.3-.6-.3-.9-.1l-.7.5c-.5-.3-1-.5-1.5-.6l-.1-1c0-.4-.4-.6-.7-.6h-1.6c-.4 0-.6.3-.7.6l-.1 1c-.5.2-1.1.4-1.5.6l-.7-.6c-.3-.2-.7-.2-.9.1l-1.2 1.2c-.3.3-.3.6-.1.9l.6.8c-.3.5-.5 1-.5 1.4l-1 .1c-.4 0-.6.4-.6.7v1.6c0 .4.3.6.6.7l.9.4zm6.1-4.4c1.5 0 2.7 1.3 2.7 2.7 0 1.5-1.3 2.7-2.7 2.7-1.5 0-2.7-1.3-2.7-2.7 0-1.5 1.1-2.7 2.7-2.7zM43 25.1l-.9-.7c-.3-.3-.6-.2-.9 0l-.5.5c-.5-.2-.8-.4-1.3-.5l-.2-.6c-.1-.4-.4-.5-.7-.5l-1.2.1c-.4 0-.6.3-.6.6v.6c-.5.2-.8.4-1.3.6l-.4-.3c-.3-.2-.7-.2-.9.1l-.7.9c-.3.3-.2.6 0 .9l.5.5c-.2.4-.3.8-.4 1.3l-.7.2c-.4.1-.5.4-.5.7l.1 1.2c0 .4.3.6.6.6h.8c.2.4.4.7.5 1.1l-.4.6c-.2.3-.2.7.1.9l.9.7c.3.3.6.2.9 0l.5-.5c.4.2.7.3 1.2.4l.2.8c.1.4.4.5.7.5l1.2-.1c.4 0 .6-.3.6-.6v-.7c.5-.2.8-.4 1.2-.6l.6.5c.3.2.7.2.9-.1l.7-.9c.3-.3.2-.6 0-.9l-.5-.6c.2-.4.4-.8.4-1.3l.7-.2c.4-.1.5-.4.5-.7l-.1-1.2c0-.4-.3-.6-.6-.6h-.7c-.2-.4-.4-.8-.5-1.2l.4-.5c.2-.3.1-.8-.2-1zm-4.2 6.6c-1.3.1-2.3-.8-2.4-2.1-.1-1.3.8-2.3 2.1-2.4s2.3.8 2.4 2.1c0 1.2-1 2.3-2.1 2.4z"/><path class="st0" d="M24.7 34.8c-.4 0-.6.4-.6.7v.7c0 .4.3.6.6.7l.5.1c.1.3.2.6.4.9l-.4.5c-.2.3-.2.6 0 .9l.5.5c.3.3.6.3.9.1l.5-.4c.3.2.6.3.9.4l.1.5c0 .4.4.6.7.6h.7c.4 0 .6-.3.7-.6l.1-.5c.4-.1.7-.2 1-.4l.4.3c.3.2.6.2.9 0l.5-.5c.3-.3.3-.6.1-.9l-.4-.5c.2-.3.4-.6.5-1l.5-.1c.4 0 .6-.4.6-.7v-.7c0-.4-.3-.6-.6-.7l-.5-.1c-.1-.4-.2-.6-.4-1l.3-.4c.2-.3.2-.6 0-.9l-.5-.5c-.3-.3-.6-.3-.9-.1l-.4.3c-.3-.2-.6-.4-1-.5V31c0-.4-.4-.6-.7-.6H29c-.4 0-.6.3-.7.6l-.1.5c-.4.1-.7.3-1.1.5l-.4-.3c-.3-.2-.6-.2-.9 0l-.5.5c-.3.3-.3.6-.1.9l.3.4c-.2.3-.3.6-.4 1l-.4.3zm4.5-.8c1 0 1.8.8 1.8 1.8s-.8 1.8-1.8 1.8-1.8-.8-1.8-1.8.8-1.8 1.8-1.8z"/><path class="st1" d="M23 1l-3.9 7.8h7.8z"/><path class="st2" d="M23 53.1c2.2 0 4-1.7 4-4v-2h-7.8v2c-.1 2.2 1.6 4 3.8 4z"/><path class="st3" d="M19.1 8.8h7.8v35.7h-7.8z"/><path class="st4" d="M21.7 8.8h2.6v35.6h-2.6z"/><path class="st5" d="M19.1 44.5v2.6-.6z"/><path class="st6" d="M26.9 46.5v-2h-7.8v2.6h7.8z"/><path class="st7" d="M22.5.5c.1-.1.3-.2.5-.2.4 0 .6.3.6.6v.9c0 .4-.3.6-.6.6-.4 0-.6-.2-.6-.6V1c-.1-.2 0-.3.1-.5z"/></svg>