<svg id="Capa_1" xmlns="http://www.w3.org/2000/svg" viewBox="0 0 58 58"><style>.st0{fill:#b5c3c6}.st1{fill:#b6c8cc}.st2{fill:#e3e9ec}.st3{fill:#556080}.st4{fill:#a3b8be}.st5{fill:#cfe1e5}.st6{fill:#71c285}.st7{fill:#4c8056}.st8{fill:#d1d4d1}</style><path class="st0" d="M29 10.8h5.6v36.5H29z"/><path class="st1" d="M29 12.9H9.3c-.4 0-.7.3-.7.7v30.9c0 .4.3.7.7.7H29V12.9zm11.8 0l5 2.8v26.6l-5 2.8h7.8c.4 0 .7-.3.7-.7V13.6c0-.4-.3-.7-.7-.7h-7.8z"/><path class="st2" d="M34.6 9.5v39c0 .1.1.1.1.1l11.1-6.2V15.7L34.7 9.4s-.1 0-.1.1z"/><path class="st3" d="M29 15.7H12.4c-.5 0-.9.4-.9.9v24.8c0 .5.4.9.9.9H29V15.7z"/><path class="st4" d="M45.1 19.9h2.1c.4 0 .7-.3.7-.7s-.3-.7-.7-.7h-2.1c-.4 0-.7.3-.7.7s.3.7.7.7zm2.1.7h-2.1c-.4 0-.7.3-.7.7 0 .4.3.7.7.7h2.1c.4 0 .7-.3.7-.7 0-.3-.3-.7-.7-.7zm0 15.5h-2.1c-.4 0-.7.3-.7.7 0 .4.3.7.7.7h2.1c.4 0 .7-.3.7-.7 0-.4-.3-.7-.7-.7zm0 2.1h-2.1c-.4 0-.7.3-.7.7 0 .4.3.7.7.7h2.1c.4 0 .7-.3.7-.7 0-.4-.3-.7-.7-.7z"/><path class="st3" d="M10.1 45.2h5.6V48h-5.6zm32.2 0h5.6V48h-5.6z"/><circle class="st3" cx="31.8" cy="12.9" r=".7"/><circle class="st3" cx="31.8" cy="17.1" r=".7"/><circle class="st3" cx="31.8" cy="40.9" r=".7"/><circle class="st3" cx="31.8" cy="36.7" r=".7"/><circle class="st3" cx="31.8" cy="21.3" r=".7"/><circle class="st3" cx="31.8" cy="45.1" r=".7"/><path class="st0" d="M36.7 22v2.8c1.2 0 2.1.9 2.1 2.1v4.2c0 1.2-.9 2.1-2.1 2.1V36c2.7 0 4.9-2.2 4.9-4.9v-4.2c0-2.7-2.2-4.9-4.9-4.9z"/><path class="st5" d="M37.5 23.1h-.8v.7h.7c1.1 0 2.8 1.3 2.8 2.5v5.5c0 1.1-1.6 2.6-2.8 2.6h-.7v.6h.8c1.5 0 3.4-1.8 3.4-3.3v-5.5c0-1.5-1.9-3.1-3.4-3.1z"/><path class="st6" d="M14.3 34h12.6v8.4H14.3z"/><path class="st7" d="M14.3 39.6h4.2V41h-4.2zm0-2.1h4.2v1.4h-4.2zm0-2.1h4.2v1.4h-4.2zm8.4 4.2h4.2V41h-4.2zm0-2.1h4.2v1.4h-4.2zm0-2.1h4.2v1.4h-4.2z"/><path class="st8" d="M18.5 34h4.2v8.4h-4.2z"/><path class="st6" d="M14.3 20.6h12.6V29H14.3z"/><path class="st7" d="M14.3 26.3h4.2v1.4h-4.2zm0-2.1h4.2v1.4h-4.2zm0-2.2h4.2v1.4h-4.2zm8.4 4.3h4.2v1.4h-4.2zm0-2.1h4.2v1.4h-4.2zm0-2.2h4.2v1.4h-4.2z"/><path class="st8" d="M18.5 20.6h4.2V29h-4.2z"/><path class="st0" d="M11.5 29.1H29v1.4H11.5z"/></svg>