<svg xmlns="http://www.w3.org/2000/svg" width="512" height="512" viewBox="0 0 31.918 31.917"><g fill="#FFF"><path d="M24.043 1.91c-4.557-.32-8.442 1.969-8.662 5.102-.125 1.775.965 3.528 2.93 4.742l-1.783 2.66.691-.058c.047-.004 4.653-.391 7.846-1.098 4.188-.928 6.682-2.78 6.844-5.085.219-3.132-3.307-5.942-7.866-6.263zm.877 10.696c-2.412.535-5.654.885-7.059 1.021l1.4-2.093-.313-.178c-1.931-1.088-3.013-2.693-2.899-4.297.194-2.766 3.76-4.775 7.947-4.48 4.189.294 7.438 2.783 7.244 5.549-.198 2.821-4.485 4.071-6.32 4.478z"/><path d="M26.913 25.385c.021-1.274-.501-2.275-1.692-2.478-.916-.152-1.671.266-1.974.47.012-.267.026-.562.032-.732.01-.229.414-.353.611-.538.115-.11-.004-.403-.004-.403s-1.014.448-.986.884c.016.211.017.508.016.756a2.883 2.883 0 0 0-1.73-.459c-1.168.057-1.935.914-1.912 2.188.018 1.405 1.012 2.622 1.969 3.067h-3.521v-.29h-.584l-.107-1.901-.316.124a4.782 4.782 0 0 1-1.279.313l-.594-5.384c.095-.7.22-1.767.268-2.86.08-1.871.36-7.813-5.028-7.813-5.39 0-5.241 4.961-5.241 4.961l.393 6.435-.486 4.681a4.816 4.816 0 0 1-1.591-.332l-.319-.124-.109 1.9h-.61v.289H0v1.898h26.467v-1.898h-1.415c.923-.401 1.844-1.405 1.861-2.754zM3.236 27.604l.053-.958c.537.175 1.073.26 1.629.26.979 0 1.831-.273 2.516-.494.544-.177.997-.324 1.353-.283.707.085.858 1.023.891 1.477l-6.442-.002zm3.314-1.441l.291-2.251c.225.759.44 1.482.593 1.98l-.152.048a19.62 19.62 0 0 1-.732.223zm1.936-5.256l.426-.105v-1.601a4.302 4.302 0 0 1-2.997-4.527c1.171-.08 5.215-.447 5.319-1.756.385.71 2.427 2.5 3.236 2.618a4.304 4.304 0 0 1-3.158 3.709v1.499h.008l.543.258-1.707 3.076-1.67-3.171zm5.145 5.34a10.323 10.323 0 0 1-.803-.229c.084-.543.241-1.531.419-2.562l.384 2.791zm-3.445 1.357c.031-.452.182-1.391.892-1.477.354-.043.809.106 1.353.283.685.221 1.535.494 2.515.494.557 0 1.092-.085 1.629-.26l.053.958-6.442.002zm10.699-.968c-.443-.566-.31-1.37-.31-1.37s.296.744.6 1.206.825.829.825.829-.674-.098-1.115-.665z"/></g></svg>