<svg xmlns="http://www.w3.org/2000/svg" width="512" height="512" viewBox="0 0 91.201 91.201"><g fill="#FFF"><path d="M45.182 37.845c-1.118 0-1.842.099-2.269.197v14.502c.427.099 1.118.099 1.743.099 4.538.032 7.497-2.467 7.497-7.76.033-4.604-2.665-7.038-6.971-7.038zm-19.365-.065c-1.021 0-1.71.099-2.072.197v6.543c.428.099.953.132 1.677.132 2.664 0 4.308-1.348 4.308-3.617 0-2.039-1.413-3.255-3.913-3.255z"/><path d="M58.984 0H12.336v91.201h66.529V27.05L55.23 10.73 58.984 0zM32.656 46.165c-1.71 1.61-4.241 2.335-7.2 2.335-.659 0-1.25-.033-1.711-.1v7.924H18.78V34.459c1.545-.264 3.715-.461 6.773-.461 3.091 0 5.294.592 6.775 1.776 1.414 1.118 2.367 2.959 2.367 5.129 0 2.171-.724 4.012-2.039 5.262zm28.108-12.002h13.549v4.11h-8.517v5.063h7.958v4.076h-7.958v8.912h-5.032V34.163zm-3.285 10.554c0 4.242-1.543 7.168-3.682 8.977-2.335 1.94-5.887 2.862-10.226 2.862-2.598 0-4.44-.166-5.689-.329V34.459c1.842-.296 4.242-.461 6.775-.461 4.208 0 6.938.756 9.076 2.369 2.3 1.709 3.746 4.438 3.746 8.35z"/><path d="M63.652 0l-3.039 8.694 18.252 12.603z"/></g></svg>