<svg xmlns="http://www.w3.org/2000/svg" viewBox="0 0 37.463 37.463" width="512" height="512"><path d="M36.355 29.542v-7.679l-1.01-6.055h-9.622l3.126 2.338v3.704l-2.018-1.493v.735h-.599v8.448h-.624v-9.257h.599v-1.112h-.925l-7.014-5.162-6.774 5.287h-.821v1.114h.675v9.131h-.658v-8.322h-.675v-.466l-1.434 1.191v-3.779l2.873-2.356H1.502l-1.01 6.055v7.678H0v2.902h37.463v-2.902h-1.108zM4.93 28.044H1.583v-1.832H4.93v1.832zm0-2.926H1.583v-1.83H4.93v1.83zm1.388 2.926v-1.832h3.346v1.832H6.318zm.001-2.926v-1.83h3.346v1.83H6.319zm12.077-8.84a1.326 1.326 0 1 1 0 2.653 1.326 1.326 0 0 1 0-2.653zm5.388 13.262h-.735v-8.358h-9.507v8.358h-.666v-9.131h.64v-.43h9.852v.304h.416v9.257zm6.402-1.686H26.84v-1.832h3.346v1.832zm0-2.927H26.84v-1.83h3.346v1.83zm4.735 2.927h-3.346v-1.832h3.346v1.832zm0-2.927h-3.346v-1.83h3.346v1.83zM18.295 10.875h-.204V5.41h.427v.104c.468.204 1.601.591 2.239-.101.817-.885 2.248 0 2.248 0v2.522s-1.158-.953-2.248 0c-.829.724-1.814.347-2.239.124v2.816h-.221l9.928 7.425v2.111l-10.042-7.427-8.945 7.427V18.3l9.057-7.425z" fill="#FFF"/></svg>