<svg xmlns="http://www.w3.org/2000/svg" width="512" height="512" viewBox="0 0 31.662 31.662"><g fill="#FFF"><path d="M13.193 13.308h4.496a5.33 5.33 0 0 1 1.863-3.159h.015a4.977 4.977 0 0 0 3.172-1.25c1.412-1.252 2.187-3.332 2.292-6.192a1.378 1.378 0 0 0-1.32-1.425c-.826-.042-1.396.562-1.425 1.322-.084 2.161-.602 3.664-1.506 4.349a2.115 2.115 0 0 1-.606.323l-.021.005c-.595-.568-1.418-.845-1.974-.845h-6.795c-1.246 0-2.237 1.251-2.259 2.624 2.076.507 3.686 2.186 4.068 4.248z"/><ellipse cx="14.78" cy="3.195" rx="3.261" ry="3.195"/><path d="M14.359 21.546c0-2.479-1.068-3.526-2.55-3.526H8.373c1.854-.271 3.275-1.834 3.275-3.728 0-2.08-1.72-3.768-3.847-3.768-2.123 0-3.844 1.688-3.844 3.768 0 1.894 1.421 3.456 3.276 3.728H3.795c-1.484 0-2.688 1.588-2.688 3.229v5.02h13.252v-4.723zm4.742-7.254c0 1.894 1.422 3.456 3.274 3.728h-3.439c-1.485 0-2.618 1.588-2.618 3.229v5.02h13.15v-4.72c0-2.45-1.029-3.481-2.481-3.506-.021 0-.019-.021-.037-.021h-3.438c1.855-.271 3.277-1.834 3.277-3.729 0-2.08-1.722-3.768-3.846-3.768-2.122-.001-3.842 1.687-3.842 3.767zM.029 28.423h31.604v3.239H.029z"/></g></svg>