<svg xmlns="http://www.w3.org/2000/svg" width="512" height="512" viewBox="0 0 576.306 576.306"><g fill="#FFF"><path d="M423.687 364.648h-12.498v74.693c3.099-1.263 6.312-2.143 9.562-2.851v-44.321c17.299-4.381 31.202-17.193 37.083-33.843a76.643 76.643 0 0 1-18.57-11.484c-1.415 8.454-5.642 17.806-15.577 17.806z"/><path d="M392.063 391.528v41.826a61.708 61.708 0 0 1 9.562 7.287v-85.556h-7.105c-.928 0-1.673-.143-2.458-.258-3.959-.563-6.311-2.333-7.554-3.921-2.534-3.242-2.266-7.095-2.008-8.702v-15.807a4.783 4.783 0 0 1 4.781-4.781 4.784 4.784 0 0 1 4.781 4.781l-.144 17.652c-.067.373-.019 1.473.134 1.473h9.573v-19.125c0-.66.134-1.291.373-1.865a4.784 4.784 0 0 1 9.189 1.864v28.688h12.498c5.433 0 6.628-12.029 6.628-15.013v-2.113a76.657 76.657 0 0 1-9.897-14.592c-.975-1.874-1.913-3.776-2.735-5.737a76.152 76.152 0 0 1-5.929-29.519c0-.201.029-.402.029-.602-1.367-.105-2.735-.21-4.121-.21-29.424 0-53.282 23.857-53.282 53.281-.01 24.002 15.864 44.284 37.685 50.949zm-236.298 66.689c11.131-13.312 27.731-20.731 45.651-20.731 10.165 0 19.718 2.677 28.085 7.344V77.773H124.314v359.254c12.45 3.547 23.475 11.054 31.451 21.19zm-2.764-74.444h9.562v19.125h-9.562v-19.125zm0-28.688h9.562v19.125h-9.562v-19.125zm0-28.687h9.562v19.125h-9.562v-19.125zm0-28.688h9.562v19.125h-9.562V297.71zm0-28.687h9.562v19.125h-9.562v-19.125zm0-28.688h9.562v19.125h-9.562v-19.125zm0-28.687h9.562v19.125h-9.562v-19.125zm0-28.687h9.562v19.125h-9.562v-19.125zm0-28.688h9.562v19.125h-9.562v-19.125zm47.812 19.125h-9.562v-19.125h9.562v19.125zm0 28.687h-9.562V182.96h9.562v19.125zm0 28.688h-9.562v-19.125h9.562v19.125zm0 28.688h-9.562v-19.125h9.562v19.125zm0 28.687h-9.562v-19.125h9.562v19.125zm0 28.687h-9.562V297.71h9.562v19.125zm0 28.688h-9.562v-19.125h9.562v19.125zm0 28.687h-9.562v-19.125h9.562v19.125zm0 28.688h-9.562v-19.125h9.562v19.125zm-28.687-19.125h9.562v19.125h-9.562v-19.125zm0-28.688h9.562v19.125h-9.562v-19.125zm0-28.687h9.562v19.125h-9.562v-19.125zm0-28.688h9.562v19.125h-9.562V297.71zm0-28.687h9.562v19.125h-9.562v-19.125zm0-28.688h9.562v19.125h-9.562v-19.125zm0-28.687h9.562v19.125h-9.562v-19.125zm0-28.687h9.562v19.125h-9.562v-19.125zm9.562-9.563h-9.562v-19.125h9.562v19.125zm19.125-57.375v28.688h-9.562v-28.688h9.562zm-19.125 0v28.688h-9.562v-28.688h9.562zm-28.687 0h9.562v28.688h-9.562v-28.688zM51.791 484.629c0-14.976 5.996-26.642 15.147-34.941 2.897-2.63 6.11-4.915 9.562-6.847a63.883 63.883 0 0 1 3.232-1.693H76.5v-19.125h19.125v13.952c4.236-.803 8.549-1.253 12.862-1.253 2.113 0 4.198.152 6.263.383V288.148H0v210.375h52.957l-.096-.679c-.735-4.026-1.07-9.849-1.07-13.215zm-32.665-91.294h19.125v19.125H19.126v-19.125zm0-28.687h19.125v19.125H19.126v-19.125zm0-28.688h19.125v19.125H19.126V335.96zm47.812 19.125H47.813V335.96h19.125v19.125zm0 28.688H47.813v-19.125h19.125v19.125zm-19.124 9.562h19.125v19.125H47.814v-19.125zm47.812 19.125H76.501v-19.125h19.125v19.125zm0-28.687H76.501v-19.125h19.125v19.125zm0-28.688H76.501V335.96h19.125v19.125zm0-28.687H76.501v-19.125h19.125v19.125zm-28.688 0H47.813v-19.125h19.125v19.125zm-47.812-19.125h19.125v19.125H19.126v-19.125zm0 114.75h19.125v19.125H19.126v-19.125zm28.688 0h19.125v19.125H47.814v-19.125zm212.918 73.708l.096 2.792h40.755l-.096-.679c-.736-4.026-1.071-9.85-1.071-13.216 0-23.925 14.038-44.579 34.271-54.324V230.773h-95.625v220.693c12.634 10.72 20.934 26.603 21.67 44.265zm54.831-121.521h-9.562v-9.562h9.562v9.562zm-38.25-9.562h19.125v9.562h-19.125v-9.562zm0-28.688h19.125v19.125h-19.125V335.96zm0-28.687h19.125v19.125h-19.125v-19.125zm0-28.688h19.125v19.125h-19.125v-19.125zm38.25 19.125h-9.562v-19.125h9.562v19.125zm0 28.688h-9.562v-19.125h9.562v19.125zm0 28.687h-9.562V335.96h9.562v19.125zm0-86.062h-9.562v-19.125h9.562v19.125zm-19.125 0h-19.125v-19.125h19.125v19.125zm-38.25-19.125h9.562v19.125h-9.562v-19.125zm0 28.687h9.562v19.125h-9.562v-19.125zm0 28.688h9.562v19.125h-9.562v-19.125zm0 28.687h9.562v19.125h-9.562V335.96zm0 28.688h9.562v9.562h-9.562v-9.562zm0 19.125h57.373v9.562h-57.375v-9.562h.002zm0 19.125h57.375v9.562h-57.375v-9.562zm0 19.125h57.375v9.562h-57.375v-9.562zm172.125-100.454a67.062 67.062 0 0 0 29.901 27.321 66.573 66.573 0 0 0 17.911 5.384v100.798c.938 1.033 1.893 2.037 2.764 3.136 2.066-2.477 4.38-4.676 6.799-6.731V307.276H474.54c-11.398 0-15.539-9.907-15.539-16.562v-21.688a4.783 4.783 0 0 1 4.781-4.781 4.782 4.782 0 0 1 4.78 4.781v21.688c.029 1.616.536 7 5.978 7h13.148v-28.688c0-.66.135-1.291.373-1.865a4.784 4.784 0 0 1 9.189 1.864V326.4h11.254c2.123 0 3.672-.602 4.858-1.893 3.06-3.338 3.223-10.356 3.03-12.557l-.019-23.801a4.783 4.783 0 0 1 4.781-4.781 4.784 4.784 0 0 1 4.781 4.781v23.39c.096.89.869 12.46-5.537 19.441-3.003 3.261-7.115 4.982-11.896 4.982h-11.255v108.936c3.05-1.673 6.235-3.117 9.562-4.227v-88.176c28.019-8.032 48.55-33.783 48.55-64.384 0-37.016-30.007-67.024-67.024-67.024-37.017 0-67.023 30.007-67.023 67.024 0 .354.048.689.048 1.042a66.713 66.713 0 0 0 8.953 32.416z"/><path d="M239.063 498.523h12.116c-.487-12.517-5.059-23.524-12.116-32.13-2.83-3.452-5.967-6.579-9.562-9.132-7.994-5.681-17.624-9.027-28.085-9.027-20.588 0-38.25 10.079-45.9 27.865-5.565-13.799-16.993-24.566-31.202-29.252-3.06-1.015-6.273-1.673-9.562-2.085-2.056-.259-4.131-.479-6.263-.479-10.94 0-22.864 3.777-31.987 11.121a42.985 42.985 0 0 0-5.087 4.867c-6.091 6.817-10.06 15.74-10.06 26.746 0 3.117.383 1.94.918 11.504h167.229l9.561.002zm287.478-50.28c-7.028 0-13.665 1.263-19.728 3.509a48.665 48.665 0 0 0-9.562 4.791c-3.567 2.324-6.799 5.068-9.562 8.301-2.831 3.309-5.24 7.048-7.049 11.255-.717-1.77-1.615-3.443-2.515-5.106-8.578-15.864-25.216-26.708-44.513-26.708-4.485 0-8.75.775-12.862 1.903-3.337.908-6.531 2.104-9.562 3.653-3.176 1.615-6.235 3.433-9.009 5.642-.172-.239-.383-.459-.555-.698-2.725-3.72-5.957-7.027-9.562-9.888-8.625-6.847-19.461-11.016-31.327-11.016-9.534 0-18.428 2.955-26.048 7.898-14.784 9.582-24.711 26.756-24.711 45.25 0 3.117.384 1.941.918 11.504h265.408c-1.107-28.698-22.871-50.29-49.761-50.29z"/></g></svg>